<mxfile host="app.diagrams.net" modified="2023-09-22T15:47:07.359Z" agent="Mozilla/5.0 (Windows NT 10.0; Win64; x64) AppleWebKit/537.36 (KHTML, like Gecko) Chrome/117.0.0.0 Safari/537.36" etag="drcnSCm70LEE3qgR0p_k" version="21.8.0" type="device">
  <diagram name="Page-1" id="daJ1U8mDf3gfgYco7bzk">
    <mxGraphModel dx="2074" dy="1128" grid="1" gridSize="10" guides="1" tooltips="1" connect="1" arrows="1" fold="1" page="1" pageScale="1" pageWidth="850" pageHeight="1100" math="0" shadow="0">
      <root>
        <mxCell id="0" />
        <mxCell id="1" parent="0" />
        <mxCell id="9pUlnr799w4WHmp7HDe4-10" style="rounded=0;orthogonalLoop=1;jettySize=auto;html=1;exitX=0.5;exitY=0.5;exitDx=0;exitDy=0;exitPerimeter=0;endArrow=none;endFill=0;" parent="1" source="9pUlnr799w4WHmp7HDe4-1" target="9pUlnr799w4WHmp7HDe4-9" edge="1">
          <mxGeometry relative="1" as="geometry" />
        </mxCell>
        <mxCell id="9pUlnr799w4WHmp7HDe4-1" value="Bank User" style="shape=umlActor;verticalLabelPosition=bottom;verticalAlign=top;html=1;outlineConnect=0;" parent="1" vertex="1">
          <mxGeometry x="40" y="330" width="30" height="60" as="geometry" />
        </mxCell>
        <mxCell id="0AewDM7R2hnaBqyxv9_Q-14" style="edgeStyle=orthogonalEdgeStyle;rounded=0;orthogonalLoop=1;jettySize=auto;html=1;exitX=1;exitY=0;exitDx=0;exitDy=0;entryX=0;entryY=0.5;entryDx=0;entryDy=0;curved=1;dashed=1;" parent="1" source="9pUlnr799w4WHmp7HDe4-9" target="0AewDM7R2hnaBqyxv9_Q-13" edge="1">
          <mxGeometry relative="1" as="geometry" />
        </mxCell>
        <mxCell id="0AewDM7R2hnaBqyxv9_Q-15" value="&lt;font style=&quot;font-size: 15px;&quot;&gt;&amp;lt;&amp;lt;includes&amp;gt;&amp;gt;&lt;/font&gt;" style="edgeLabel;html=1;align=center;verticalAlign=middle;resizable=0;points=[];" parent="0AewDM7R2hnaBqyxv9_Q-14" vertex="1" connectable="0">
          <mxGeometry x="0.2059" y="-12" relative="1" as="geometry">
            <mxPoint as="offset" />
          </mxGeometry>
        </mxCell>
        <mxCell id="0AewDM7R2hnaBqyxv9_Q-23" style="edgeStyle=orthogonalEdgeStyle;rounded=0;orthogonalLoop=1;jettySize=auto;html=1;exitX=0;exitY=1;exitDx=0;exitDy=0;entryX=0;entryY=0.5;entryDx=0;entryDy=0;dashed=1;curved=1;" parent="1" source="0AewDM7R2hnaBqyxv9_Q-13" target="0AewDM7R2hnaBqyxv9_Q-22" edge="1">
          <mxGeometry relative="1" as="geometry" />
        </mxCell>
        <mxCell id="0AewDM7R2hnaBqyxv9_Q-24" value="&lt;font style=&quot;font-size: 15px;&quot;&gt;&amp;lt;&amp;lt;Extends&amp;gt;&amp;gt;&lt;/font&gt;" style="edgeLabel;html=1;align=center;verticalAlign=middle;resizable=0;points=[];" parent="0AewDM7R2hnaBqyxv9_Q-23" vertex="1" connectable="0">
          <mxGeometry x="0.2588" y="4" relative="1" as="geometry">
            <mxPoint x="-9" y="-4" as="offset" />
          </mxGeometry>
        </mxCell>
        <mxCell id="0AewDM7R2hnaBqyxv9_Q-32" style="edgeStyle=orthogonalEdgeStyle;rounded=0;orthogonalLoop=1;jettySize=auto;html=1;exitX=1;exitY=1;exitDx=0;exitDy=0;entryX=0;entryY=0.5;entryDx=0;entryDy=0;curved=1;dashed=1;" parent="1" source="9pUlnr799w4WHmp7HDe4-9" target="0AewDM7R2hnaBqyxv9_Q-31" edge="1">
          <mxGeometry relative="1" as="geometry" />
        </mxCell>
        <mxCell id="0AewDM7R2hnaBqyxv9_Q-33" value="&lt;font style=&quot;font-size: 15px;&quot;&gt;&amp;lt;&amp;lt;Extends&amp;gt;&amp;gt;&lt;/font&gt;" style="edgeLabel;html=1;align=center;verticalAlign=middle;resizable=0;points=[];" parent="0AewDM7R2hnaBqyxv9_Q-32" vertex="1" connectable="0">
          <mxGeometry x="0.2409" y="8" relative="1" as="geometry">
            <mxPoint as="offset" />
          </mxGeometry>
        </mxCell>
        <mxCell id="9pUlnr799w4WHmp7HDe4-9" value="Website" style="ellipse;whiteSpace=wrap;html=1;" parent="1" vertex="1">
          <mxGeometry x="200" y="320" width="120" height="80" as="geometry" />
        </mxCell>
        <mxCell id="BOQo1IsUWKPXBRxW1X1w-2" style="rounded=0;orthogonalLoop=1;jettySize=auto;html=1;endArrow=none;endFill=0;exitX=0.5;exitY=0.5;exitDx=0;exitDy=0;exitPerimeter=0;" edge="1" parent="1" source="9pUlnr799w4WHmp7HDe4-20" target="BOQo1IsUWKPXBRxW1X1w-1">
          <mxGeometry relative="1" as="geometry" />
        </mxCell>
        <mxCell id="9pUlnr799w4WHmp7HDe4-20" value="Data Thief" style="shape=umlActor;verticalLabelPosition=bottom;verticalAlign=top;html=1;outlineConnect=0;fillColor=#99CCFF;" parent="1" vertex="1">
          <mxGeometry x="1430" y="330" width="30" height="60" as="geometry" />
        </mxCell>
        <mxCell id="0AewDM7R2hnaBqyxv9_Q-8" style="rounded=0;orthogonalLoop=1;jettySize=auto;html=1;endArrow=none;endFill=0;entryX=0;entryY=0.5;entryDx=0;entryDy=0;" parent="1" source="0AewDM7R2hnaBqyxv9_Q-7" target="BOQo1IsUWKPXBRxW1X1w-1" edge="1">
          <mxGeometry relative="1" as="geometry">
            <mxPoint x="1180" y="630" as="targetPoint" />
          </mxGeometry>
        </mxCell>
        <mxCell id="0AewDM7R2hnaBqyxv9_Q-10" style="edgeStyle=orthogonalEdgeStyle;rounded=0;orthogonalLoop=1;jettySize=auto;html=1;exitX=0;exitY=0.5;exitDx=0;exitDy=0;curved=1;dashed=1;" parent="1" source="0AewDM7R2hnaBqyxv9_Q-7" target="9pUlnr799w4WHmp7HDe4-9" edge="1">
          <mxGeometry relative="1" as="geometry" />
        </mxCell>
        <mxCell id="0AewDM7R2hnaBqyxv9_Q-11" value="&lt;font style=&quot;font-size: 15px;&quot;&gt;&amp;lt;&amp;lt;Threatens&amp;gt;&amp;gt;&lt;/font&gt;" style="edgeLabel;html=1;align=center;verticalAlign=middle;resizable=0;points=[];" parent="0AewDM7R2hnaBqyxv9_Q-10" vertex="1" connectable="0">
          <mxGeometry x="-0.1354" y="-1" relative="1" as="geometry">
            <mxPoint x="22" y="21" as="offset" />
          </mxGeometry>
        </mxCell>
        <mxCell id="0AewDM7R2hnaBqyxv9_Q-7" value="Packet Sniffing" style="ellipse;whiteSpace=wrap;html=1;fillColor=#CCE5FF;" parent="1" vertex="1">
          <mxGeometry x="930" y="50" width="120" height="80" as="geometry" />
        </mxCell>
        <mxCell id="0AewDM7R2hnaBqyxv9_Q-43" style="edgeStyle=orthogonalEdgeStyle;rounded=0;orthogonalLoop=1;jettySize=auto;html=1;entryX=0;entryY=0.5;entryDx=0;entryDy=0;curved=1;dashed=1;" parent="1" source="0AewDM7R2hnaBqyxv9_Q-13" target="0AewDM7R2hnaBqyxv9_Q-42" edge="1">
          <mxGeometry relative="1" as="geometry" />
        </mxCell>
        <mxCell id="0AewDM7R2hnaBqyxv9_Q-44" value="&lt;font style=&quot;font-size: 15px;&quot;&gt;&amp;lt;&amp;lt;Includes&amp;gt;&amp;gt;&lt;br&gt;&lt;/font&gt;" style="edgeLabel;html=1;align=center;verticalAlign=middle;resizable=0;points=[];" parent="0AewDM7R2hnaBqyxv9_Q-43" vertex="1" connectable="0">
          <mxGeometry x="-0.2308" y="4" relative="1" as="geometry">
            <mxPoint x="-47" y="41" as="offset" />
          </mxGeometry>
        </mxCell>
        <mxCell id="0AewDM7R2hnaBqyxv9_Q-13" value="Utilize TLS" style="ellipse;whiteSpace=wrap;html=1;" parent="1" vertex="1">
          <mxGeometry x="470" y="160" width="120" height="80" as="geometry" />
        </mxCell>
        <mxCell id="0AewDM7R2hnaBqyxv9_Q-16" style="edgeStyle=orthogonalEdgeStyle;rounded=0;orthogonalLoop=1;jettySize=auto;html=1;exitX=0;exitY=1;exitDx=0;exitDy=0;curved=1;entryX=1;entryY=0;entryDx=0;entryDy=0;startArrow=classic;startFill=1;endArrow=none;endFill=0;dashed=1;" parent="1" source="0AewDM7R2hnaBqyxv9_Q-7" target="0AewDM7R2hnaBqyxv9_Q-13" edge="1">
          <mxGeometry relative="1" as="geometry">
            <mxPoint x="860" y="130" as="sourcePoint" />
            <mxPoint x="270" y="330" as="targetPoint" />
          </mxGeometry>
        </mxCell>
        <mxCell id="0AewDM7R2hnaBqyxv9_Q-17" value="&lt;font style=&quot;font-size: 15px;&quot;&gt;&amp;lt;&amp;lt;Prevents&amp;gt;&amp;gt;&lt;/font&gt;" style="edgeLabel;html=1;align=center;verticalAlign=middle;resizable=0;points=[];" parent="0AewDM7R2hnaBqyxv9_Q-16" vertex="1" connectable="0">
          <mxGeometry x="-0.1354" y="-1" relative="1" as="geometry">
            <mxPoint x="16" y="4" as="offset" />
          </mxGeometry>
        </mxCell>
        <mxCell id="0AewDM7R2hnaBqyxv9_Q-20" style="edgeStyle=orthogonalEdgeStyle;rounded=0;orthogonalLoop=1;jettySize=auto;html=1;exitX=0;exitY=0.5;exitDx=0;exitDy=0;entryX=1;entryY=0.5;entryDx=0;entryDy=0;curved=1;dashed=1;" parent="1" source="0AewDM7R2hnaBqyxv9_Q-18" target="0AewDM7R2hnaBqyxv9_Q-13" edge="1">
          <mxGeometry relative="1" as="geometry" />
        </mxCell>
        <mxCell id="0AewDM7R2hnaBqyxv9_Q-21" value="&lt;font style=&quot;font-size: 15px;&quot;&gt;&amp;lt;&amp;lt;Threatens&amp;gt;&amp;gt;&lt;br&gt;&lt;/font&gt;" style="edgeLabel;html=1;align=center;verticalAlign=middle;resizable=0;points=[];" parent="0AewDM7R2hnaBqyxv9_Q-20" vertex="1" connectable="0">
          <mxGeometry x="-0.2385" y="3" relative="1" as="geometry">
            <mxPoint x="18" y="-7" as="offset" />
          </mxGeometry>
        </mxCell>
        <mxCell id="0AewDM7R2hnaBqyxv9_Q-18" value="TLS Downgrade" style="ellipse;whiteSpace=wrap;html=1;fillColor=#CCE5FF;" parent="1" vertex="1">
          <mxGeometry x="910" y="220" width="120" height="80" as="geometry" />
        </mxCell>
        <mxCell id="0AewDM7R2hnaBqyxv9_Q-19" style="rounded=0;orthogonalLoop=1;jettySize=auto;html=1;entryX=0;entryY=0.5;entryDx=0;entryDy=0;endArrow=none;endFill=0;exitX=1;exitY=0.5;exitDx=0;exitDy=0;" parent="1" source="0AewDM7R2hnaBqyxv9_Q-18" target="BOQo1IsUWKPXBRxW1X1w-1" edge="1">
          <mxGeometry relative="1" as="geometry" />
        </mxCell>
        <mxCell id="0AewDM7R2hnaBqyxv9_Q-25" style="edgeStyle=orthogonalEdgeStyle;rounded=0;orthogonalLoop=1;jettySize=auto;html=1;exitX=1;exitY=0.5;exitDx=0;exitDy=0;entryX=0;entryY=1;entryDx=0;entryDy=0;curved=1;dashed=1;" parent="1" source="0AewDM7R2hnaBqyxv9_Q-22" target="0AewDM7R2hnaBqyxv9_Q-18" edge="1">
          <mxGeometry relative="1" as="geometry" />
        </mxCell>
        <mxCell id="0AewDM7R2hnaBqyxv9_Q-26" value="&lt;font style=&quot;font-size: 15px;&quot;&gt;&amp;lt;&amp;lt;Mitigates&amp;gt;&amp;gt;&lt;br&gt;&lt;/font&gt;" style="edgeLabel;html=1;align=center;verticalAlign=middle;resizable=0;points=[];" parent="0AewDM7R2hnaBqyxv9_Q-25" vertex="1" connectable="0">
          <mxGeometry x="0.0306" y="17" relative="1" as="geometry">
            <mxPoint x="-33" as="offset" />
          </mxGeometry>
        </mxCell>
        <mxCell id="0AewDM7R2hnaBqyxv9_Q-22" value="Require TLS 1.3" style="ellipse;whiteSpace=wrap;html=1;" parent="1" vertex="1">
          <mxGeometry x="680" y="320" width="120" height="80" as="geometry" />
        </mxCell>
        <mxCell id="0AewDM7R2hnaBqyxv9_Q-29" style="edgeStyle=orthogonalEdgeStyle;rounded=0;orthogonalLoop=1;jettySize=auto;html=1;entryX=1;entryY=1;entryDx=0;entryDy=0;curved=1;dashed=1;" parent="1" source="0AewDM7R2hnaBqyxv9_Q-27" target="0AewDM7R2hnaBqyxv9_Q-22" edge="1">
          <mxGeometry relative="1" as="geometry" />
        </mxCell>
        <mxCell id="0AewDM7R2hnaBqyxv9_Q-30" value="&lt;font style=&quot;font-size: 15px;&quot;&gt;&amp;lt;&amp;lt;Threatens&amp;gt;&amp;gt;&lt;br&gt;&lt;/font&gt;" style="edgeLabel;html=1;align=center;verticalAlign=middle;resizable=0;points=[];" parent="0AewDM7R2hnaBqyxv9_Q-29" vertex="1" connectable="0">
          <mxGeometry x="-0.2448" y="-8" relative="1" as="geometry">
            <mxPoint x="12" y="-122" as="offset" />
          </mxGeometry>
        </mxCell>
        <mxCell id="0AewDM7R2hnaBqyxv9_Q-27" value="TLS Exhaustion" style="ellipse;whiteSpace=wrap;html=1;fillColor=#CCE5FF;" parent="1" vertex="1">
          <mxGeometry x="930" y="580" width="120" height="80" as="geometry" />
        </mxCell>
        <mxCell id="0AewDM7R2hnaBqyxv9_Q-28" style="rounded=0;orthogonalLoop=1;jettySize=auto;html=1;exitX=1;exitY=0.5;exitDx=0;exitDy=0;entryX=0;entryY=0.5;entryDx=0;entryDy=0;endArrow=none;endFill=0;" parent="1" source="0AewDM7R2hnaBqyxv9_Q-27" target="BOQo1IsUWKPXBRxW1X1w-1" edge="1">
          <mxGeometry relative="1" as="geometry" />
        </mxCell>
        <mxCell id="0AewDM7R2hnaBqyxv9_Q-34" style="edgeStyle=orthogonalEdgeStyle;rounded=0;orthogonalLoop=1;jettySize=auto;html=1;exitX=1;exitY=0.5;exitDx=0;exitDy=0;entryX=0;entryY=1;entryDx=0;entryDy=0;curved=1;dashed=1;" parent="1" source="0AewDM7R2hnaBqyxv9_Q-31" target="0AewDM7R2hnaBqyxv9_Q-27" edge="1">
          <mxGeometry relative="1" as="geometry" />
        </mxCell>
        <mxCell id="0AewDM7R2hnaBqyxv9_Q-35" value="&lt;font style=&quot;font-size: 15px;&quot;&gt;&amp;lt;&amp;lt;Prevents&amp;gt;&amp;gt;&lt;/font&gt;" style="edgeLabel;html=1;align=center;verticalAlign=middle;resizable=0;points=[];" parent="0AewDM7R2hnaBqyxv9_Q-34" vertex="1" connectable="0">
          <mxGeometry x="-0.3172" y="7" relative="1" as="geometry">
            <mxPoint as="offset" />
          </mxGeometry>
        </mxCell>
        <mxCell id="0AewDM7R2hnaBqyxv9_Q-31" value="Internal Only Site" style="ellipse;whiteSpace=wrap;html=1;" parent="1" vertex="1">
          <mxGeometry x="460" y="620" width="120" height="80" as="geometry" />
        </mxCell>
        <mxCell id="0AewDM7R2hnaBqyxv9_Q-40" style="edgeStyle=orthogonalEdgeStyle;rounded=0;orthogonalLoop=1;jettySize=auto;html=1;entryX=1;entryY=0.5;entryDx=0;entryDy=0;curved=1;dashed=1;" parent="1" source="0AewDM7R2hnaBqyxv9_Q-38" target="9pUlnr799w4WHmp7HDe4-9" edge="1">
          <mxGeometry relative="1" as="geometry" />
        </mxCell>
        <mxCell id="0AewDM7R2hnaBqyxv9_Q-41" value="&lt;font style=&quot;font-size: 15px;&quot;&gt;&amp;lt;&amp;lt;Threatens&amp;gt;&amp;gt;&lt;br&gt;&lt;/font&gt;" style="edgeLabel;html=1;align=center;verticalAlign=middle;resizable=0;points=[];" parent="0AewDM7R2hnaBqyxv9_Q-40" vertex="1" connectable="0">
          <mxGeometry x="-0.3067" y="14" relative="1" as="geometry">
            <mxPoint x="-42" y="-54" as="offset" />
          </mxGeometry>
        </mxCell>
        <mxCell id="0AewDM7R2hnaBqyxv9_Q-38" value="TLS Stripping" style="ellipse;whiteSpace=wrap;html=1;fillColor=#CCE5FF;" parent="1" vertex="1">
          <mxGeometry x="860" y="410" width="120" height="80" as="geometry" />
        </mxCell>
        <mxCell id="0AewDM7R2hnaBqyxv9_Q-39" style="rounded=0;orthogonalLoop=1;jettySize=auto;html=1;exitX=1;exitY=0.5;exitDx=0;exitDy=0;entryX=0;entryY=0.5;entryDx=0;entryDy=0;endArrow=none;endFill=0;" parent="1" source="0AewDM7R2hnaBqyxv9_Q-38" target="BOQo1IsUWKPXBRxW1X1w-1" edge="1">
          <mxGeometry relative="1" as="geometry" />
        </mxCell>
        <mxCell id="0AewDM7R2hnaBqyxv9_Q-45" style="edgeStyle=orthogonalEdgeStyle;rounded=0;orthogonalLoop=1;jettySize=auto;html=1;entryX=0;entryY=1;entryDx=0;entryDy=0;dashed=1;curved=1;" parent="1" source="0AewDM7R2hnaBqyxv9_Q-42" target="0AewDM7R2hnaBqyxv9_Q-38" edge="1">
          <mxGeometry relative="1" as="geometry" />
        </mxCell>
        <mxCell id="0AewDM7R2hnaBqyxv9_Q-46" value="&lt;font style=&quot;font-size: 15px;&quot;&gt;&amp;lt;&amp;lt;Prevents&amp;gt;&amp;gt;&lt;br&gt;&lt;/font&gt;" style="edgeLabel;html=1;align=center;verticalAlign=middle;resizable=0;points=[];" parent="0AewDM7R2hnaBqyxv9_Q-45" vertex="1" connectable="0">
          <mxGeometry x="-0.0569" y="13" relative="1" as="geometry">
            <mxPoint x="-85" y="3" as="offset" />
          </mxGeometry>
        </mxCell>
        <mxCell id="0AewDM7R2hnaBqyxv9_Q-42" value="Enable HSTS" style="ellipse;whiteSpace=wrap;html=1;" parent="1" vertex="1">
          <mxGeometry x="495" y="510" width="120" height="80" as="geometry" />
        </mxCell>
        <mxCell id="BOQo1IsUWKPXBRxW1X1w-1" value="Proprietary Information Theft" style="ellipse;whiteSpace=wrap;html=1;fillColor=#CCE5FF;" vertex="1" parent="1">
          <mxGeometry x="1200" y="320" width="120" height="80" as="geometry" />
        </mxCell>
      </root>
    </mxGraphModel>
  </diagram>
</mxfile>
